<svg width="379" height="160" viewBox="0 0 379 160" fill="none" xmlns="http://www.w3.org/2000/svg">
<path d="M1.53512 127.186H3.31477V134.613H7.13366L11.374 127.186H13.2966L8.63488 135.366L13.6502 143.59H11.6825L7.16 136.209H3.31853V143.59H1.53888V127.19L1.53512 127.186Z" fill="white"/>
<path d="M17.281 127.186H19.0606V143.587H17.281V127.186Z" fill="white"/>
<path d="M27.8986 128.755H22.9284V127.186H34.6447V128.755H29.6745V143.587H27.8948V128.755H27.8986Z" fill="white"/>
<path d="M37.8089 141.013V129.763L40.3862 127.186H47.4145L49.8977 129.669V131.171H48.118V130.256L46.6168 128.781H41.1801L39.5848 130.35V140.426L41.1801 141.995H46.6168L48.118 140.52V139.606H49.8977V141.107L47.4145 143.59H40.3862L37.8089 141.013Z" fill="white"/>
<path d="M54.0026 127.186H55.7822V134.613H64.2666V127.186H66.0462V143.587H64.2666V136.205H55.7822V143.587H54.0026V127.186Z" fill="white"/>
<path d="M70.9675 127.186H81.5588V128.778H72.7472V134.542H80.8778V136.137H72.7472V141.995H81.5588V143.59H70.9675V127.19V127.186Z" fill="white"/>
<path d="M85.7766 127.186H87.5111L96.0631 140.682H96.1083V127.186H97.7939V143.587H96.0594L87.5073 130.091H87.4584V143.587H85.7728V127.186H85.7766Z" fill="white"/>
<path d="M109.375 141.013V129.763L111.952 127.186H119.356L121.934 129.763V141.013L119.356 143.59H111.952L109.375 141.013ZM118.559 141.995L120.154 140.426V130.35L118.559 128.781H112.75L111.154 130.35V140.426L112.75 141.995H118.559Z" fill="white"/>
<path d="M126.622 127.186H136.98V128.778H128.405V134.685H135.859V136.28H128.405V143.59H126.626V127.19L126.622 127.186Z" fill="white"/>
<path d="M147.383 141.013V129.763L149.96 127.186H156.989L159.472 129.669V131.171H157.692V130.256L156.191 128.781H150.754L149.159 130.35V140.426L150.754 141.995H156.191L157.692 140.52V139.606H159.472V141.107L156.989 143.59H149.96L147.383 141.013Z" fill="white"/>
<path d="M163.577 127.186H174.168V128.778H165.356V134.542H173.487V136.137H165.356V141.995H174.168V143.59H163.577V127.19V127.186Z" fill="white"/>
<path d="M178.386 127.186H180.165V142.018H188.507V143.587H178.382V127.186H178.386Z" fill="white"/>
<path d="M192.141 127.186H202.733V128.778H193.921V134.542H202.052V136.137H193.921V141.995H202.733V143.59H192.141V127.19V127.186Z" fill="white"/>
<path d="M206.954 127.186H216.165L218.32 129.342V133.887L217.195 135.012L219.047 136.863V141.292L216.751 143.587H206.958V127.186H206.954ZM215.412 134.591L216.586 133.421V129.88L215.412 128.733H208.685V134.591H215.412ZM215.95 142.044L217.308 140.708V137.428L215.95 136.092H208.685V142.044H215.95Z" fill="white"/>
<path d="M234.887 138.575V143.591H233.107V139.068L230.857 136.701H225.048V143.591H223.268V127.19H232.64L234.796 129.346V134.527L232.896 136.423L234.887 138.579V138.575ZM225.044 135.155H231.862L233.035 134.008V129.884L231.862 128.736H225.044V135.159V135.155Z" fill="white"/>
<path d="M244.116 127.186H246.038L251.874 143.587H250.023L248.499 139.158H241.655L240.131 143.587H238.28L244.116 127.186ZM247.984 137.612L245.102 129.248H245.056L242.197 137.612H247.984Z" fill="white"/>
<path d="M257.078 128.755H252.111V127.186H263.827V128.755H258.861V143.587H257.081V128.755H257.078Z" fill="white"/>
<path d="M266.988 141.013V129.763L269.565 127.186H276.97L279.547 129.763V141.013L276.97 143.59H269.565L266.988 141.013ZM276.172 141.995L277.767 140.426V130.35L276.172 128.781H270.363L268.767 130.35V140.426L270.363 141.995H276.172Z" fill="white"/>
<path d="M295.857 138.575V143.591H294.078V139.068L291.828 136.701H286.015V143.591H284.235V127.19H293.607L295.763 129.346V134.527L293.863 136.423L295.853 138.579L295.857 138.575ZM286.015 135.155H292.832L294.006 134.008V129.884L292.832 128.736H286.015V135.159V135.155Z" fill="white"/>
<path d="M304.364 136.747L298.668 127.186H300.59L305.229 135.129H305.275L309.914 127.186H311.836L306.144 136.747V143.59H304.364V136.747Z" fill="white"/>
<path d="M326.555 127.186H328.478L334.313 143.587H332.462L330.938 139.158H324.094L322.571 143.587H320.719L326.555 127.186ZM330.423 137.612L327.541 129.248H327.496L324.636 137.612H330.423Z" fill="white"/>
<path d="M349.45 138.575V143.591H347.67V139.068L345.42 136.701H339.611V143.591H337.831V127.19H347.203L349.359 129.346V134.527L347.459 136.423L349.45 138.579V138.575ZM339.607 135.155H346.425L347.599 134.008V129.884L346.425 128.736H339.607V135.159V135.155Z" fill="white"/>
<path d="M357.701 128.755H352.734V127.186H364.451V128.755H359.484V143.587H357.704V128.755H357.701Z" fill="white"/>
<path d="M367.261 141.435V139.933H369.018V140.848L370.143 141.995H375.768L376.942 140.803V137.123L375.768 135.975H369.466L367.31 133.819V129.346L369.466 127.19H376.355L378.511 129.346V130.87H376.776V129.933L375.602 128.785H370.237L369.063 129.933V133.236L370.237 134.384H376.539L378.695 136.54V141.389L376.494 143.591H369.417L367.261 141.435Z" fill="white"/>
<g style="mix-blend-mode:exclusion">
<path d="M0 89.5013V0.221924H26.1227L25.4455 19.9146C24.5689 23.662 29.2381 26.1678 31.9019 23.3648L49.1001 0.221924H86.4651L86.5027 21.2654C86.529 25.2987 83.2444 28.5871 79.1885 28.5871H53.1485C51.3049 28.5871 49.8149 30.0695 49.8149 31.9018C49.8149 33.7341 51.3049 35.2166 53.1485 35.2166H66.5579C67.4985 35.2166 68.409 35.495 69.1954 36.018L85.6373 46.978C86.8639 47.7945 87.6314 49.1339 87.7217 50.59L87.8195 89.5013H61.1926L52.5691 81.3706V64.1649C52.5691 62.216 50.3643 61.091 48.7765 62.2235L38.1589 69.8161C36.4507 71.0389 35.4424 73.0067 35.4424 75.1099V89.5051" fill="white"/>
<path d="M358.133 0.684768C357.904 0.466545 357.701 0.233272 357.513 0H312.047C310.655 0 309.308 0.504169 308.247 1.40716L293.084 14.3463C291.737 15.4938 290.958 17.1907 290.958 18.9778V89.7234H321.679C324.373 89.7234 326.924 88.4855 328.624 86.356L344.619 66.3284C348.163 61.8962 354.465 64.8648 354.465 70.9713V89.7234H379V20.8139L358.133 0.684768ZM347.873 50.9813H314.628C313.119 50.9813 311.9 49.7435 311.9 48.2046C311.9 47.4408 312.201 46.7448 312.694 46.2444C313.187 45.744 313.876 45.4355 314.628 45.4355H320.546V28.7941C320.546 26.3523 321.702 24.0572 323.643 22.6312L335.728 13.7781C337.53 12.4613 340.04 13.7706 340.04 16.0356V36.0933L349.95 45.6574C351.933 47.5725 350.605 50.9738 347.869 50.9738L347.873 50.9813Z" fill="white"/>
<path d="M177.961 12.3258L183.853 13.7179C184.394 13.842 184.906 13.4319 184.906 12.8751V0.259548C184.906 0.259548 184.898 0.221924 184.88 0.221924H96.9021C96.9021 0.221924 96.8682 0.240736 96.8682 0.259548V77.9506C96.8682 77.9506 96.8682 77.9694 96.8758 77.9694L108.882 89.4975C108.882 89.4975 108.889 89.5051 108.901 89.5051H184.883C184.883 89.5051 184.91 89.4863 184.91 89.4674V33.8169C184.91 30.5925 183.608 27.511 181.294 25.2987L174.533 18.8047C171.741 16.1371 174.232 11.4453 177.961 12.3258ZM159.547 42.8543C159.001 43.4074 158.287 43.6858 157.572 43.6858C156.857 43.6858 156.138 43.3999 155.593 42.8468L151.296 38.4899L139.437 50.5147C137.695 52.2793 135.219 53.0882 132.796 52.6856L117.708 50.1836C115.459 49.8074 114.571 47.0119 116.185 45.3752L130.482 30.8784L130.098 16.6676C130.023 13.8232 133.413 12.3408 135.4 14.3537L159.547 38.8398C160.642 39.9535 160.642 41.7444 159.547 42.8543Z" fill="white"/>
<path d="M275.901 38.1589L263.519 47.1888C262.665 47.8133 261.668 48.2272 260.618 48.3965L233.524 52.7647C229.45 53.4232 225.747 50.3191 225.747 46.2444V33.911H221.251C219.423 33.911 217.782 32.5603 217.688 30.7581C217.587 28.8355 219.137 27.2477 221.063 27.2477H241.309C244.214 27.2477 246.987 26.0701 248.984 23.9894L259.339 13.1987C262.036 10.3844 266.773 12.8977 265.882 16.6715L263.797 25.5095C263.587 26.3974 264.271 27.2477 265.197 27.2477H280.472L280.54 13.6991C280.578 6.1441 274.381 0 266.724 0H194.045V78.135L206.457 89.7234H269.825L281.816 77.2245L282.049 41.0484C281.91 38.0046 278.384 36.3491 275.905 38.1589H275.901Z" fill="white"/>
</g>
<path d="M379 112.832H0.57567V114.036H379V112.832Z" fill="white"/>
<path d="M379 158.155H0.57567V159.359H379V158.155Z" fill="white"/>
<path d="M0 89.5013V0.221924H26.1227L25.4455 19.9146C24.5689 23.662 29.2381 26.1678 31.9019 23.3648L49.1001 0.221924H86.4651L86.5027 21.2654C86.529 25.2987 83.2444 28.5871 79.1885 28.5871H53.1485C51.3049 28.5871 49.8149 30.0695 49.8149 31.9018C49.8149 33.7341 51.3049 35.2166 53.1485 35.2166H66.5579C67.4985 35.2166 68.409 35.495 69.1954 36.018L85.6373 46.978C86.8639 47.7945 87.6314 49.1339 87.7217 50.59L87.8195 89.5013H61.1926L52.5691 81.3706V64.1649C52.5691 62.216 50.3643 61.091 48.7765 62.2235L38.1589 69.8161C36.4507 71.0389 35.4424 73.0067 35.4424 75.1099V89.5051" fill="white"/>
<path d="M358.133 0.684768C357.904 0.466545 357.701 0.233272 357.513 0H312.047C310.655 0 309.308 0.504169 308.247 1.40716L293.084 14.3463C291.737 15.4938 290.958 17.1907 290.958 18.9778V89.7234H321.679C324.373 89.7234 326.924 88.4855 328.624 86.356L344.619 66.3284C348.163 61.8962 354.465 64.8648 354.465 70.9713V89.7234H379V20.8139L358.133 0.684768ZM347.873 50.9813H314.628C313.119 50.9813 311.9 49.7435 311.9 48.2046C311.9 47.4408 312.201 46.7448 312.694 46.2444C313.187 45.744 313.876 45.4355 314.628 45.4355H320.546V28.7941C320.546 26.3523 321.702 24.0572 323.643 22.6312L335.728 13.7781C337.53 12.4613 340.04 13.7706 340.04 16.0356V36.0933L349.95 45.6574C351.933 47.5725 350.605 50.9738 347.869 50.9738L347.873 50.9813Z" fill="white"/>
<path d="M177.961 12.3258L183.853 13.7179C184.394 13.842 184.906 13.4319 184.906 12.8751V0.259548C184.906 0.259548 184.898 0.221924 184.88 0.221924H96.9021C96.9021 0.221924 96.8682 0.240736 96.8682 0.259548V77.9506C96.8682 77.9506 96.8682 77.9694 96.8758 77.9694L108.882 89.4975C108.882 89.4975 108.889 89.5051 108.901 89.5051H184.883C184.883 89.5051 184.91 89.4863 184.91 89.4674V33.8169C184.91 30.5925 183.608 27.511 181.294 25.2987L174.533 18.8047C171.741 16.1371 174.232 11.4453 177.961 12.3258ZM159.547 42.8543C159.001 43.4074 158.287 43.6858 157.572 43.6858C156.857 43.6858 156.138 43.3999 155.593 42.8468L151.296 38.4899L139.437 50.5147C137.695 52.2793 135.219 53.0882 132.796 52.6856L117.708 50.1836C115.459 49.8074 114.571 47.0119 116.185 45.3752L130.482 30.8784L130.098 16.6676C130.023 13.8232 133.413 12.3408 135.4 14.3537L159.547 38.8398C160.642 39.9535 160.642 41.7444 159.547 42.8543Z" fill="white"/>
<path d="M275.901 38.1589L263.519 47.1888C262.665 47.8133 261.668 48.2272 260.618 48.3965L233.524 52.7647C229.45 53.4232 225.747 50.3191 225.747 46.2444V33.911H221.251C219.423 33.911 217.782 32.5603 217.688 30.7581C217.587 28.8355 219.137 27.2477 221.063 27.2477H241.309C244.214 27.2477 246.987 26.0701 248.984 23.9894L259.339 13.1987C262.036 10.3844 266.773 12.8977 265.882 16.6715L263.797 25.5095C263.587 26.3974 264.271 27.2477 265.197 27.2477H280.472L280.54 13.6991C280.578 6.1441 274.381 0 266.724 0H194.045V78.135L206.457 89.7234H269.825L281.816 77.2245L282.049 41.0484C281.91 38.0046 278.384 36.3491 275.905 38.1589H275.901Z" fill="white"/>
</svg>
