<svg width="18" height="18" viewBox="0 0 18 18" fill="none" xmlns="http://www.w3.org/2000/svg">
<g id="liquor">
<mask id="mask0_1_275" style="mask-type:alpha" maskUnits="userSpaceOnUse" x="0" y="0" width="18" height="18">
<rect id="Bounding box" width="18" height="18" fill="#D9D9D9"/>
</mask>
<g mask="url(#mask0_1_275)">
<path id="liquor_2" d="M3 15.75V15H4.25475V12.3836C3.85575 12.2914 3.54688 12.1027 3.32812 11.8176C3.10937 11.5324 3 11.199 3 10.8173V5.625H6.25969V10.8173C6.25969 11.1798 6.14787 11.5084 5.92425 11.8031C5.70075 12.0979 5.39425 12.2914 5.00475 12.3836V15H6.25969V15.75H3ZM3.75 8.95669H5.50969V6.375H3.75V8.95669ZM4.62975 11.6972C4.87113 11.6972 5.07812 11.6109 5.25075 11.4383C5.42338 11.2656 5.50969 11.0586 5.50969 10.8173V9.70669H3.75V10.8173C3.75 11.0586 3.83631 11.2656 4.00894 11.4383C4.18156 11.6109 4.3885 11.6972 4.62975 11.6972ZM9.69225 15.75C9.486 15.75 9.30944 15.6766 9.16256 15.5297C9.01569 15.3828 8.94225 15.2063 8.94225 15V7.73662C8.94225 7.57575 8.99275 7.43194 9.09375 7.30519C9.19475 7.17831 9.31831 7.0875 9.46444 7.03275L10.1769 6.75581C10.5058 6.63556 10.7621 6.47762 10.9457 6.282C11.1293 6.08625 11.2211 5.76631 11.2211 5.32219V2.82956C11.2211 2.66344 11.2764 2.52531 11.3871 2.41519C11.4976 2.30506 11.6346 2.25 11.7981 2.25H12.8942C13.0577 2.25 13.1948 2.30531 13.3054 2.41594C13.4159 2.52644 13.4711 2.66344 13.4711 2.82694V5.32219C13.4711 5.76631 13.5654 6.08625 13.7539 6.282C13.9424 6.47762 14.201 6.63556 14.5297 6.75581L15.2567 7.03275C15.4028 7.08825 15.5216 7.17931 15.6129 7.30594C15.7043 7.43244 15.75 7.576 15.75 7.73662V15C15.75 15.2063 15.6766 15.3828 15.5297 15.5297C15.3828 15.6766 15.2063 15.75 15 15.75H9.69225ZM11.9711 3.82219H12.7211V3H11.9711V3.82219ZM9.69225 9.44719H15V7.73662L14.2731 7.45969C13.7981 7.28469 13.4207 7.04094 13.1409 6.72844C12.8611 6.41594 12.7211 5.95006 12.7211 5.33081V4.57219H11.9711V5.33081C11.9711 5.95006 11.8313 6.41594 11.5515 6.72844C11.2716 7.04094 10.8942 7.28469 10.4192 7.45969L9.69225 7.73662V9.44719ZM9.69225 15H15V12.9808H9.69225V15ZM9.69225 12.2308H15V10.1972H9.69225V12.2308Z" fill="white"/>
</g>
</g>
</svg>
