<svg width="18" height="18" viewBox="0 0 18 18" fill="none" xmlns="http://www.w3.org/2000/svg">
<g id="ramen_dining">
<mask id="mask0_1_270" style="mask-type:alpha" maskUnits="userSpaceOnUse" x="0" y="0" width="18" height="18">
<rect id="Bounding box" width="18" height="18" fill="#D9D9D9"/>
</mask>
<g mask="url(#mask0_1_270)">
<path id="ramen_dining_2" d="M7.41337 15H10.5578V14.1461L10.9759 14.0019C11.9326 13.7058 12.7459 13.2263 13.4156 12.5633C14.0854 11.9003 14.5453 11.2125 14.7953 10.5H3.20475C3.45475 11.2125 3.90912 11.9003 4.56787 12.5633C5.2265 13.2263 6.03562 13.7058 6.99525 14.0019L7.41337 14.1461V15ZM6.66337 15.75V14.6683C5.47012 14.2972 4.47713 13.6529 3.68438 12.7356C2.89162 11.8183 2.4135 10.8231 2.25 9.75H3.75V3.5625L15.75 2.25V2.92781L7.81725 3.80194V5.37975H15.75V6.04331H7.81725V9.75H15.75C15.6058 10.8231 15.1276 11.8183 14.3156 12.7356C13.5036 13.6529 12.501 14.2972 11.3078 14.6683V15.75H6.66337ZM6.11531 5.37975H7.15388V3.87113L6.11531 3.97931V5.37975ZM4.41338 5.37975H5.45194V4.05281L4.41338 4.17113V5.37975ZM6.11531 9.75H7.15388V6.04331H6.11531V9.75ZM4.41338 9.75H5.45194V6.04331H4.41338V9.75Z" fill="white"/>
</g>
</g>
</svg>
