<svg width="215" height="180" viewBox="0 0 215 180" fill="none" xmlns="http://www.w3.org/2000/svg"><g id="Group 27"><path id="Vector" d="M80.2111 27.407C80.2111 27.407 80.2207 27.4435 80.2304 27.4801C80.2401 27.5167 80.2498 27.5532 80.2643 27.6081C80.274 27.6447 80.2789 27.6629 80.2703 27.7043C80.28 27.7409 80.2665 27.764 80.2579 27.8055C80.2676 27.842 80.2408 27.8883 80.2322 27.9297C80.2322 27.9297 80.237 27.948 80.2419 27.9663C80.2467 27.9845 80.2198 28.0308 80.2064 28.0539C80.2064 28.0539 80.2064 28.0539 80.2112 28.0722L80.1929 28.077C79.0269 31.282 77.9388 34.4858 76.8507 37.6896L73.6704 47.3963C71.5964 53.8943 69.6284 60.4229 67.7614 66.9639C65.9177 73.5182 64.1201 80.0995 62.6125 86.7409C61.8654 90.05 37.5028 167.202 36.9579 170.536C36.6971 172.209 36.4727 173.873 36.3995 175.517C36.3916 175.93 36.3788 176.324 36.4025 176.709C36.4047 176.865 36.4301 177.035 36.4457 177.168C36.5726 177.056 36.6898 176.907 36.7935 176.782C37.1768 176.309 37.8458 176.249 38.3192 176.632C38.7925 177.015 38.8524 177.684 38.4691 178.158C38.4374 178.186 38.4239 178.209 38.3922 178.237C38.053 178.581 37.7137 178.925 37.1357 179.255C36.9809 179.335 36.826 179.415 36.5652 179.464C36.3458 179.523 36.0156 179.532 35.6929 179.422C35.3702 179.312 35.1147 179.086 34.9652 178.891C34.8156 178.695 34.7257 178.504 34.6821 178.339C34.4711 177.691 34.4694 177.241 34.458 176.755C34.4514 176.287 34.4862 175.828 34.5259 175.387C34.7028 173.618 35.0186 171.93 35.3709 170.232C36.062 166.86 60.4891 89.7299 61.3739 86.4234C63.1252 79.8153 64.9641 73.2426 66.8493 66.6968L72.5598 47.0449L72.8354 46.0914C72.5247 46.839 72.2141 47.5866 71.8852 48.339C69.0068 55.0502 66.0224 61.7307 62.8116 68.2952C59.5777 74.8462 56.2329 81.3483 52.4767 87.6268C48.7157 93.887 44.6271 100.019 39.6198 105.416C37.0973 108.08 34.3618 110.605 31.0841 112.413C29.4586 113.294 27.6616 114.044 25.7133 114.149C24.7507 114.209 23.7579 114.081 22.8167 113.704C21.8986 113.341 21.06 112.761 20.3984 112.036C19.075 110.586 18.37 108.738 17.9135 106.942C17.4887 105.117 17.3064 103.248 17.2666 101.399C17.187 97.7028 17.6033 94.0313 18.1669 90.3991C19.3356 83.1431 21.2911 76.0503 23.7446 69.1387C24.9574 65.667 26.2858 62.2625 27.7616 58.8972C28.5086 57.2122 29.2788 55.5406 30.1183 53.9092C30.5241 53.0777 30.9713 52.2548 31.4417 51.4453C31.6835 51.029 31.9303 50.631 32.1953 50.2281C32.3345 50.0151 32.4786 49.8204 32.6543 49.5977C32.7447 49.4955 32.8301 49.375 32.9887 49.2352C33.0205 49.2072 33.0473 49.1609 33.1156 49.1233C33.1791 49.0673 33.1974 49.0625 33.3156 48.992C33.4388 48.9398 33.4657 48.8935 33.7265 48.844C33.8544 48.8101 33.9093 48.7955 34.0932 48.8251C34.2771 48.8546 34.4525 48.9255 34.5912 49.0062C35.0915 49.3432 35.2111 50.0159 34.874 50.5162C34.7348 50.7292 34.5165 50.8653 34.2837 50.9465L34.2471 50.9562C34.1482 51.0998 34.0175 51.2714 33.8869 51.443C33.6439 51.7813 33.4058 52.138 33.1725 52.5129C32.7059 53.2626 32.2673 54.0442 31.8287 54.8257C30.9747 56.4021 30.1717 58.0237 29.3918 59.6588C27.8504 62.9241 26.4478 66.27 25.1559 69.6648C22.6319 76.4581 20.5742 83.4605 19.3119 90.5848C18.674 94.1585 18.2567 97.752 18.312 101.357C18.3555 103.146 18.5002 104.947 18.919 106.675C19.3148 108.39 19.9762 110.074 21.1317 111.333C22.2555 112.62 23.9297 113.252 25.6441 113.15C27.3682 113.085 29.0421 112.387 30.6041 111.562C33.7319 109.852 36.4733 107.424 38.9227 104.779C43.83 99.4474 47.8454 93.335 51.5516 87.0893C55.253 80.8253 58.5843 74.3463 61.6708 67.7561C64.7574 61.1659 67.6638 54.4864 70.3949 47.736C71.7513 44.3633 73.0614 40.9636 74.3484 37.5505L76.2582 32.4266C76.8944 30.6926 77.4721 29.0329 78.1535 27.2478C78.3528 26.745 78.8991 26.4437 79.4472 26.5919C79.7005 26.6618 79.9 26.8241 80.0496 27.0193C80.0824 27.0693 80.1152 27.1193 80.1298 27.1741C80.1298 27.1741 80.1346 27.1924 80.1395 27.2107C80.154 27.2656 80.1637 27.3021 80.1782 27.357L80.2111 27.407Z" fill="white"/><path id="Vector_2" d="M96.0347 48.9442C94.7581 51.1414 93.389 53.2848 91.83 55.3025C91.0597 56.3089 90.2479 57.3067 89.334 58.2141C88.4431 59.1351 87.4829 60.0157 86.3414 60.7291C85.7682 61.0766 85.1257 61.3839 84.3653 61.468C83.9851 61.5101 83.5576 61.4473 83.1424 61.2834C82.9573 61.1759 82.7675 61.0501 82.6142 60.9146C82.4743 60.756 82.3161 60.6022 82.2311 60.4291C81.8131 59.7376 81.7069 59.0418 81.647 58.3728C81.6147 58.0292 81.6055 57.699 81.6145 57.3639C81.6026 57.1714 81.6321 56.9875 81.6434 56.8084C81.3499 57.4732 81.0565 58.138 80.7217 58.7941C80.1901 59.8155 79.5988 60.8332 78.8091 61.7664C78.4027 62.2263 77.9548 62.6777 77.3402 63.0166C77.0305 63.177 76.7391 63.3325 76.2675 63.3988C76.0384 63.4203 75.7813 63.4102 75.5049 63.3269C75.2468 63.2388 75.0009 63.0496 74.8331 62.8592C74.5157 62.4737 74.3957 62.0946 74.3219 61.7424C74.2298 61.395 74.2023 61.0697 74.1979 60.7578C74.166 60.1205 74.2035 59.5236 74.2641 58.9401C74.3805 57.7548 74.6028 56.6001 74.8531 55.4772C74.9965 54.9109 75.1399 54.3446 75.3016 53.7734C75.3849 53.497 75.4816 53.1974 75.5832 52.9161C75.6407 52.7639 75.703 52.63 75.7557 52.4595C75.8449 52.2793 75.8707 52.1551 76.1002 51.8399C76.4884 51.3848 77.1756 51.3201 77.6307 51.7082C78.0857 52.0964 78.1456 52.7653 77.7575 53.2204C77.7258 53.2484 77.7037 53.3129 77.6903 53.336C77.6365 53.4286 77.5925 53.5576 77.5436 53.6684C77.4506 53.9083 77.3394 54.153 77.2512 54.4112C77.0701 54.9092 76.8987 55.4438 76.7225 55.9601C76.4114 57.0013 76.1466 58.0694 75.9598 59.1364C75.8846 59.6651 75.8095 60.1937 75.8075 60.703C75.7958 61.1757 75.8814 61.7205 75.9933 61.8474C76.0444 61.8925 75.9616 61.8753 76.081 61.8828C76.2004 61.8903 76.4284 61.7908 76.6064 61.724C77.0075 61.5395 77.3881 61.2038 77.7408 60.8364C79.1687 59.284 80.1953 57.2509 81.1304 55.242C81.4862 54.4433 81.8189 53.6312 82.1332 52.8239C82.4216 51.4756 82.7746 50.1494 83.1458 48.8183C83.2597 48.4359 83.6512 48.2147 84.0335 48.3286C84.4159 48.4425 84.6371 48.834 84.5232 49.2164C83.786 51.6032 83.1 54.0352 82.8404 56.4521C82.8033 56.7554 82.7846 57.0539 82.7842 57.3475C82.7654 57.646 82.7832 57.9347 82.7828 58.2284C82.8184 58.8059 82.9138 59.3872 83.1581 59.7921C83.384 60.2018 83.7213 60.3668 84.2026 60.3371C84.6839 60.3074 85.2264 60.0658 85.7361 59.7742C86.7556 59.1909 87.7121 58.37 88.5809 57.5136C89.468 56.6524 90.2943 55.7094 91.0743 54.7396C92.6527 52.7951 94.0594 50.72 95.3688 48.5728C95.4629 48.4109 95.664 48.3576 95.8259 48.4517C95.9878 48.5458 96.0411 48.7469 95.947 48.9088L96.0347 48.9442Z" fill="white"/><path id="Vector_3" d="M119.47 42.7924C118.11 43.9355 116.721 45.047 115.249 46.0633C113.777 47.0795 112.272 48.0458 110.59 48.7852C109.746 49.1457 108.874 49.4746 107.908 49.5937C107.418 49.6648 106.904 49.6445 106.384 49.528C105.864 49.4114 105.332 49.1023 104.945 48.6765C104.185 47.8018 104.023 46.7489 103.969 45.8045C103.956 45.5341 103.966 45.277 103.976 45.0199C103.816 45.3754 103.674 45.7261 103.532 46.0768L102.329 49.2134C101.514 51.3078 100.745 53.429 99.7883 55.5024C99.534 56.0198 99.2847 56.5555 98.9708 57.0691C98.7864 57.3332 98.6434 57.6059 98.2945 57.9136C98.1176 58.0583 97.9541 58.1799 97.6482 58.2806C97.3422 58.3812 96.8598 58.3329 96.5629 58.0986C96.0153 57.6567 95.955 57.2813 95.8081 56.9485C95.7209 56.6194 95.6385 56.3086 95.5975 56.0064C95.4973 55.4068 95.4568 54.8109 95.4212 54.2334C95.3151 51.9134 95.4392 49.6499 95.6182 47.3718C95.674 46.77 96.1815 46.3225 96.7833 46.3782C97.3851 46.434 97.8144 46.9464 97.7769 47.5433L97.7914 47.5982L97.7597 47.6261C97.4737 49.7956 97.2436 52.0285 97.2329 54.2033C97.2406 54.7491 97.2435 55.2767 97.3011 55.7897C97.3276 56.0371 97.3723 56.2796 97.4256 56.4807C97.4304 56.499 97.4352 56.5173 97.4401 56.5355C97.517 56.4565 97.6024 56.336 97.6879 56.2155C97.9712 55.8078 98.2351 55.3269 98.499 54.8461C99.5316 52.9093 100.411 50.837 101.336 48.7916L102.734 45.721C103.202 44.7556 103.633 43.7998 104.244 42.8553C104.364 42.5692 104.664 42.3723 105.004 42.3996C105.408 42.449 105.684 42.8259 105.612 43.2168C105.612 43.2168 105.612 43.2168 105.616 43.2351C105.473 44.0951 105.342 44.9319 105.344 45.7531C105.342 46.556 105.514 47.3518 105.902 47.8556C106.285 48.3411 107.017 48.5189 107.795 48.43C108.579 48.3593 109.392 48.1047 110.19 47.7952C111.783 47.1581 113.307 46.2649 114.762 45.3315C116.23 44.3749 117.661 43.35 119.036 42.2617C119.181 42.145 119.401 42.1648 119.5 42.3148C119.617 42.46 119.592 42.6622 119.447 42.779L119.47 42.7924Z" fill="white"/><path id="Vector_4" d="M131.139 40.6782C131.044 40.7621 130.939 40.8094 130.811 40.8434L130.719 40.8676C130.162 41.0543 129.549 41.1777 128.906 41.1133C128.263 41.049 127.686 40.791 127.25 40.476C126.796 40.1658 126.447 39.8083 126.108 39.4873C125.787 39.1615 125.452 38.8589 125.202 38.7293C125.068 38.667 124.962 38.6364 124.853 38.6654C124.743 38.6945 124.583 38.7564 124.48 38.8817C124.226 39.1055 123.961 39.5084 123.723 39.865C123.238 40.6196 122.85 41.4463 122.44 42.2595C121.642 43.8994 120.982 45.62 120.383 47.3442C119.806 49.082 119.276 50.8465 118.939 52.6772C118.824 53.2753 118.265 53.6777 117.667 53.5622C117.543 53.5364 117.414 53.4924 117.316 53.4204L117.28 53.43C117.155 53.4043 117.017 53.3236 116.928 53.2102C116.872 53.1468 116.844 53.115 116.825 53.0419C116.805 52.9688 116.796 52.9322 116.791 52.9139L116.771 52.8408C116.747 52.7494 116.751 52.6897 116.755 52.63C116.744 52.5154 116.761 52.4326 116.755 52.3364C116.766 52.1573 116.787 52.0148 116.803 51.854C116.84 51.5506 116.877 51.2473 116.938 50.9575C117.035 50.3643 117.137 49.7893 117.262 49.2279C117.484 48.0732 117.753 46.9454 118.016 45.7993C118.28 44.6533 118.567 43.5206 118.895 42.3966C119.057 41.8254 119.219 41.2543 119.399 40.6783C119.5 40.397 119.579 40.1023 119.694 39.7978C119.751 39.6456 119.809 39.4934 119.88 39.3181C119.915 39.2304 119.969 39.1379 120.036 39.0223L120.108 38.9249C120.108 38.9249 120.198 38.8227 120.244 38.7716C120.244 38.7716 120.339 38.6877 120.384 38.6366L120.484 38.571C120.484 38.571 120.52 38.5613 120.639 38.4908C120.83 38.4009 121.041 38.3842 121.243 38.4089C121.469 38.447 121.736 38.5717 121.899 38.7437C122.309 39.183 122.291 39.853 121.852 40.2629C121.815 40.2726 121.802 40.2958 121.77 40.3237C121.73 40.3931 121.694 40.4808 121.659 40.5685C121.548 40.8132 121.46 41.0713 121.353 41.3343C121.159 41.8555 120.951 42.3998 120.779 42.9344C120.4 44.0133 120.049 45.1239 119.711 46.2113C119.636 46.4464 119.566 46.6997 119.496 46.953L121.779 41.9064C122.161 41.0615 122.567 40.2299 123.033 39.4022C123.275 38.9859 123.498 38.5744 123.901 38.1742C124.1 37.9649 124.345 37.7826 124.692 37.6905C125.021 37.6033 125.398 37.6209 125.702 37.7359C126.288 37.9525 126.65 38.2869 127.035 38.5567C127.401 38.8314 127.758 39.0696 128.09 39.2163C128.797 39.5183 129.327 39.3778 129.881 38.9571C130.366 38.5741 131.056 38.6653 131.439 39.1508C131.822 39.6363 131.73 40.3258 131.245 40.7088L131.139 40.6782Z" fill="white"/><path id="Vector_5" d="M154.492 32.9634C154.654 33.0575 154.708 33.2586 154.613 33.4205C153.503 35.3584 152.313 37.2195 150.972 39.023C149.625 40.8083 148.181 42.5215 146.44 44.0003C146.009 44.3688 145.556 44.7239 145.028 45.0203C144.523 45.3302 143.99 45.6084 143.345 45.7597C143.034 45.8421 142.668 45.861 142.277 45.7885C142.093 45.759 141.889 45.6563 141.714 45.5854C141.547 45.4731 141.376 45.3424 141.241 45.2021C140.723 44.5763 140.635 43.8756 140.594 43.2797C140.556 42.5462 140.648 41.8568 140.762 41.1808C140.229 42.1242 139.678 43.0724 139.109 44.0255C138.436 45.1039 137.795 46.1544 136.892 47.1764C136.77 47.3066 136.648 47.4368 136.489 47.5766C136.407 47.6374 136.33 47.7165 136.194 47.7918C136.094 47.8575 135.884 47.9522 135.65 47.9555C135.421 47.977 135.145 47.8938 134.973 47.7631C134.802 47.6325 134.685 47.4873 134.614 47.3691C134.468 47.1142 134.415 46.9131 134.344 46.7168C134.163 45.9624 134.181 45.2923 134.186 44.6453C134.232 43.3418 134.439 42.0543 134.71 40.7888C135.004 39.5368 135.376 38.2837 135.933 37.0601C136.222 36.455 136.549 35.8402 137.041 35.2598C137.519 34.7026 138.175 34.0785 139.21 33.9218C139.7 33.8506 140.215 33.9489 140.635 34.1311C141.055 34.3133 141.394 34.5563 141.695 34.8089C142.178 35.2288 142.552 35.6777 142.889 36.1364C142.925 36.1267 142.967 36.1353 143.013 36.1621C143.382 36.2992 143.589 36.7137 143.452 37.0827C143.059 38.1067 142.66 39.1125 142.367 40.1488C142.069 41.1669 141.841 42.2253 141.846 43.2025C141.857 43.6886 141.96 44.1505 142.161 44.3909C142.325 44.6409 142.669 44.6865 143.118 44.6068C143.548 44.5319 144.018 44.3097 144.477 44.0509C144.919 43.7969 145.364 43.4833 145.786 43.1562C147.469 41.8296 148.933 40.1895 150.299 38.4773C151.642 36.7518 152.901 34.9311 154.049 33.0614C154.143 32.8995 154.344 32.8462 154.506 32.9403L154.492 32.9634ZM141.555 38.1921C141.555 38.1921 141.608 38.0216 141.648 37.9522C141.551 37.8802 141.443 37.7716 141.355 37.6582C141.355 37.6582 141.345 37.6216 141.34 37.6033C141.058 37.1301 140.726 36.6898 140.387 36.3688C140.029 36.0527 139.72 35.9195 139.509 35.9362C139.275 35.9395 138.902 36.1558 138.572 36.5366C138.238 36.8992 137.938 37.3897 137.679 37.8888C136.657 39.9402 136.03 42.3759 135.829 44.7186C135.796 45.2558 135.785 45.8065 135.86 46.2367C135.878 46.2318 135.91 46.2039 135.923 46.1807C136.729 45.3803 137.476 44.3605 138.192 43.3686C139.388 41.6818 140.492 39.9413 141.591 38.1824L141.555 38.1921Z" fill="white"/><path id="Vector_6" d="M167.993 29.9334C163.361 33.6459 158.828 37.5084 154.485 41.5747C154.24 43.0875 153.996 44.6003 153.705 46.0863C152.742 51.0179 151.554 55.9115 149.96 60.6777C149.163 63.0608 148.265 65.4316 147.192 67.7314C146.119 70.0312 144.875 72.2784 143.279 74.3057C142.472 75.3218 141.573 76.2842 140.534 77.0879C139.499 77.9099 138.283 78.5647 136.949 78.9184C135.641 79.2259 134.188 79.3564 132.79 78.7292C132.102 78.4223 131.488 77.8804 131.103 77.239C130.718 76.5975 130.492 75.8942 130.405 75.1935C130.215 73.8152 130.431 72.4863 130.72 71.216C131.051 69.9543 131.475 68.7463 131.986 67.5738C133.013 65.2471 134.312 63.0634 135.691 60.9565C138.495 56.7697 141.739 52.9162 145.152 49.253C147.47 46.7796 149.891 44.3966 152.363 42.0587C152.548 40.8358 152.709 39.5994 152.871 38.363C153.014 37.1314 153.139 35.9047 153.246 34.6829C153.302 34.0811 153.334 33.4659 153.353 32.8738C153.354 32.5802 153.373 32.2817 153.355 31.9929C153.357 31.8552 153.342 31.7224 153.331 31.6079L153.317 31.553C153.137 31.1702 153.172 30.7109 153.451 30.3629C153.839 29.9078 154.527 29.8431 154.982 30.2312C155.13 30.3484 155.261 30.5484 155.276 30.6033L155.31 30.7313L155.371 30.813C155.405 30.941 155.419 30.9958 155.438 31.069C155.472 31.1969 155.483 31.3115 155.489 31.4077C155.501 31.6003 155.513 31.7928 155.515 31.9487C155.529 32.2972 155.515 32.614 155.506 32.949C155.483 33.6008 155.437 34.2391 155.368 34.8641C155.253 36.1273 155.114 37.3771 154.939 38.6367C154.89 39.0411 154.809 39.4735 154.76 39.8779C158.864 36.1682 163.108 32.6172 167.446 29.1979C167.641 29.0483 167.921 29.0719 168.094 29.2805C168.243 29.4757 168.22 29.7559 168.03 29.9237L167.993 29.9334ZM152.063 43.8797C149.995 45.8953 147.955 47.9427 146.012 50.0621C142.659 53.729 139.483 57.5449 136.784 61.6844C135.432 63.745 134.201 65.8911 133.246 68.1204C132.762 69.2466 132.36 70.3901 132.078 71.541C131.814 72.6871 131.643 73.8869 131.815 74.9764C131.968 76.0707 132.49 77.0084 133.395 77.3948C134.286 77.8044 135.482 77.7416 136.566 77.4741C138.76 76.8926 140.585 75.2153 142.022 73.3279C143.491 71.4124 144.663 69.2626 145.659 67.0419C146.674 64.8163 147.526 62.4966 148.273 60.1463C149.767 55.4458 150.892 50.6081 151.773 45.7373C151.883 45.1209 151.971 44.4912 152.081 43.8749L152.063 43.8797ZM153.965 26.4698C153.965 26.4698 153.987 26.4052 154.022 26.2396C154.183 25.6684 154.78 25.3343 155.356 25.5143C155.927 25.676 156.261 26.2723 156.086 26.8666L156.047 27.014C155.938 27.4146 155.639 27.6895 155.273 27.7864C155.108 27.83 154.916 27.8419 154.727 27.7941C154.142 27.6555 153.79 27.0641 153.947 26.4746L153.965 26.4698Z" fill="white"/><path id="Vector_7" d="M123.96 62.6173C125.119 63.4451 125.676 64.8825 125.758 66.1521C125.868 67.4535 125.647 68.6861 125.32 69.8882C124.988 71.0719 124.527 72.2116 123.991 73.2927C122.902 75.4597 121.518 77.4703 119.919 79.2636C119.783 79.417 119.549 79.4202 119.396 79.2848C119.243 79.1493 119.24 78.9154 119.357 78.7669C120.859 76.9795 122.125 74.9614 123.095 72.8648C123.576 71.7983 123.992 70.7097 124.265 69.6002C124.539 68.4907 124.688 67.3554 124.576 66.2697C124.464 65.184 124.01 64.2086 123.2 63.6603C122.403 63.0888 121.299 62.9117 120.189 62.9319C117.961 63.0137 115.704 63.7291 113.56 64.5713C111.402 65.4366 109.288 66.4665 107.221 67.6013C105.149 68.7178 103.143 69.9342 101.207 71.269C97.3362 73.9385 93.6387 76.8947 90.0763 79.9911C86.537 83.101 83.1242 86.3926 80.0496 89.9272C78.5239 91.7012 77.0724 93.5338 75.8291 95.4873C75.205 96.455 74.6455 97.4446 74.1919 98.4649C73.7566 99.4804 73.4089 100.531 73.3721 101.5C73.317 102.473 73.5899 103.281 74.2311 103.855C74.8771 104.447 75.8915 104.804 76.9402 104.996C78.012 105.201 79.1414 105.254 80.2927 105.242L83.8431 105.202C88.5997 105.135 93.3418 105.013 98.1129 105.001C100.498 104.995 102.894 105.025 105.285 105.115C107.682 105.224 110.092 105.387 112.512 105.803C113.721 106.011 114.927 106.278 116.13 106.683C117.315 107.093 118.52 107.654 119.579 108.548C120.651 109.418 121.445 110.792 121.621 112.194C121.815 113.59 121.582 114.924 121.2 116.141C120.399 118.583 119.038 120.685 117.575 122.619C116.092 124.558 114.429 126.329 112.7 128C109.219 131.33 105.389 134.302 101.332 136.864C99.286 138.149 97.1874 139.312 94.9721 140.33C92.7702 141.324 90.4746 142.187 87.9886 142.552C86.7383 142.707 85.4224 142.763 84.1085 142.309C83.7858 142.198 83.4717 142.047 83.1528 141.877C82.8704 141.697 82.6063 141.513 82.3325 141.292C81.8263 140.859 81.369 140.315 81.0532 139.714C80.3935 138.48 80.2958 137.077 80.4891 135.813C80.6823 134.548 81.1106 133.359 81.6179 132.246C82.6692 130.011 84.0819 128.032 85.6248 126.175C87.1725 124.336 88.8687 122.615 90.6816 121.039C92.4946 119.463 94.4194 118.013 96.5035 116.796C97.5546 116.184 98.6252 115.646 99.7845 115.222C100.93 114.82 102.169 114.472 103.479 114.693C103.682 114.717 103.813 114.917 103.788 115.12C103.764 115.322 103.564 115.453 103.361 115.428C102.299 115.26 101.152 115.583 100.084 115.984C99.0029 116.407 97.9738 116.954 96.9823 117.569C94.9993 118.799 93.1342 120.252 91.381 121.832C89.646 123.407 88.0047 125.114 86.5301 126.933C85.0555 128.752 83.7342 130.707 82.8001 132.794C82.3331 133.837 81.9768 134.929 81.8314 136.005C81.7042 137.076 81.8159 138.161 82.3007 139.031C82.5363 139.477 82.872 139.858 83.2711 140.182C83.4524 140.35 83.6885 140.502 83.8967 140.623C84.1048 140.744 84.3264 140.842 84.5615 140.917C85.5247 141.229 86.6529 141.204 87.7473 141.051C89.9676 140.717 92.1718 139.878 94.2774 138.89C96.383 137.901 98.422 136.735 100.395 135.468C104.337 132.917 108.039 129.979 111.397 126.702C113.058 125.068 114.63 123.321 116.04 121.48C117.409 119.63 118.665 117.654 119.324 115.561C119.658 114.534 119.822 113.453 119.666 112.497C119.511 111.54 119.054 110.702 118.279 110.066C117.522 109.425 116.533 108.944 115.482 108.596C114.427 108.23 113.309 107.998 112.177 107.789C107.602 107.065 102.844 107.054 98.128 107.051C93.38 107.077 88.6428 107.217 83.8727 107.307L80.3089 107.371C79.0796 107.384 77.8174 107.346 76.5616 107.112C75.3059 106.877 73.9468 106.474 72.7994 105.467C72.2373 104.97 71.7644 104.293 71.5158 103.577C71.2623 102.842 71.183 102.1 71.2145 101.406C71.291 99.9968 71.7462 98.7609 72.2438 97.6115C72.7598 96.4573 73.3779 95.3934 74.0423 94.3564C75.376 92.3006 76.8909 90.4121 78.48 88.5821C81.668 84.9587 85.1357 81.6526 88.7616 78.5002C92.3923 75.3661 96.1726 72.4272 100.186 69.7786C102.182 68.4476 104.284 67.2251 106.402 66.1355C108.533 65.0228 110.707 63.9967 112.985 63.1388C114.126 62.719 115.276 62.3358 116.47 62.0392C117.658 61.7242 118.885 61.5555 120.169 61.5283C121.427 61.5473 122.81 61.748 123.937 62.6039L123.96 62.6173Z" fill="white"/><path id="Vector_8" d="M132.579 89.5274C130.85 91.5703 129.14 93.6085 127.384 95.6197C126.494 96.6186 125.605 97.6175 124.669 98.5895C123.733 99.5615 122.792 100.515 121.679 101.338C121.144 101.754 120.544 102.148 119.878 102.442C119.189 102.722 118.485 102.87 117.69 102.826C116.883 102.805 116.044 102.225 115.658 101.506C115.272 100.786 115.133 100.04 115.081 99.3301C114.974 97.891 115.138 96.5169 115.344 95.1515C115.567 93.7812 115.847 92.4743 116.227 91.1018C116.389 90.5306 116.98 90.1782 117.551 90.3399C118.123 90.5016 118.475 91.0931 118.313 91.6642C118.291 91.7288 118.283 91.7702 118.256 91.8164C117.745 92.9889 117.294 94.2432 116.959 95.4866C116.623 96.73 116.357 98.0138 116.369 99.2431C116.373 99.8486 116.455 100.453 116.682 100.941C116.923 101.405 117.28 101.721 117.822 101.773C118.346 101.83 118.992 101.757 119.54 101.534C120.105 101.305 120.647 100.986 121.174 100.611C123.3 99.1089 125.125 97.1379 126.942 95.2084C128.75 93.2423 130.488 91.236 132.198 89.1978C132.288 89.0956 132.421 89.08 132.523 89.1703C132.626 89.2606 132.641 89.3935 132.551 89.4957L132.579 89.5274ZM117.583 86.3985C117.583 86.3985 117.605 86.334 117.644 86.1866C117.806 85.6155 118.402 85.2814 118.974 85.4431C119.545 85.6048 119.879 86.2011 119.722 86.7905L119.683 86.9379C119.574 87.3386 119.275 87.6134 118.909 87.7103C118.726 87.7588 118.552 87.7658 118.363 87.718C117.797 87.5746 117.445 86.9832 117.583 86.3985Z" fill="white"/><path id="Vector_9" d="M155.1 83.6177C152.829 86.5675 150.489 89.477 147.824 92.1204C146.466 93.4195 145.067 94.71 143.267 95.5979C142.816 95.8152 142.318 96.0058 141.769 96.0731C141.219 96.1405 140.535 96.0676 139.992 95.644C139.454 95.2386 139.208 94.6778 139.017 94.1804C138.84 93.6599 138.764 93.1517 138.711 92.657C138.541 90.6866 138.882 88.7962 138.999 87.0237C138.962 87.0334 138.954 87.0748 138.922 87.1028C138.352 87.6843 137.844 88.4255 137.378 89.1753C135.489 92.239 133.987 95.6505 132.594 99.033C132.372 99.6004 131.738 99.8662 131.189 99.64C131.12 99.5997 131.055 99.5776 130.986 99.5373C130.949 99.547 130.913 99.5567 130.885 99.525C130.779 99.4943 130.645 99.432 130.566 99.3551C130.487 99.2782 130.482 99.26 130.444 99.1917C130.374 99.0734 130.382 99.032 130.349 98.982C130.32 98.8723 130.311 98.8357 130.314 98.776C130.304 98.6615 130.303 98.5835 130.301 98.5055C130.299 98.3496 130.32 98.207 130.336 98.0462C130.36 97.7661 130.402 97.481 130.448 97.2143C130.537 96.6625 130.63 96.129 130.729 95.6138C130.939 94.5602 131.167 93.5018 131.414 92.4386C131.66 91.3753 131.916 90.3486 132.204 89.294C132.357 88.7642 132.492 88.2393 132.668 87.723C132.757 87.4648 132.84 87.1884 132.941 86.9071C133.004 86.7732 133.061 86.621 133.137 86.4639C133.172 86.3763 133.226 86.2837 133.312 86.1633L133.384 86.0659C133.384 86.0659 133.474 85.9637 133.537 85.9078C133.569 85.8798 133.651 85.819 133.719 85.7813C133.806 85.7388 133.801 85.7205 134.034 85.6393C134.217 85.5908 134.432 85.5924 134.603 85.645C134.792 85.6928 135 85.8138 135.135 85.9541C135.545 86.3933 135.531 87.0817 135.092 87.4916C135.06 87.5196 135.029 87.5475 134.997 87.5755C134.97 87.6218 134.948 87.6863 134.903 87.7374C134.805 87.959 134.707 88.1806 134.614 88.4205C134.428 88.9002 134.247 89.3983 134.066 89.8963C133.722 90.8875 133.383 91.897 133.067 92.9199C133.023 93.049 132.984 93.1964 132.94 93.3255C132.962 93.2609 133.007 93.2098 133.029 93.1453C133.9 91.486 134.813 89.8353 135.896 88.2373C136.449 87.445 137.007 86.671 137.772 85.9399C137.958 85.7538 138.185 85.5762 138.435 85.4122C138.571 85.3368 138.703 85.2432 138.863 85.1813C138.936 85.1619 139.023 85.1194 139.114 85.0952C139.169 85.0807 139.187 85.0758 139.26 85.0565C139.333 85.0371 139.443 85.008 139.586 85.0289C139.843 85.0391 140.166 85.2272 140.293 85.4089C140.438 85.5858 140.476 85.7321 140.524 85.8369C140.587 86.0746 140.589 86.2306 140.605 86.3634C140.604 86.657 140.594 86.9141 140.579 87.1529C140.363 89.069 139.993 90.8497 140.082 92.5872C140.115 93.0088 140.167 93.4256 140.269 93.8095C140.366 94.1752 140.554 94.5166 140.754 94.679C141.144 95.0451 142.009 94.9136 142.775 94.5542C144.348 93.8439 145.79 92.6399 147.131 91.4236C149.835 88.9265 152.263 86.1305 154.613 83.2576C154.717 83.1322 154.923 83.0972 155.053 83.2193C155.178 83.323 155.209 83.5107 155.11 83.6543L155.1 83.6177ZM135.091 87.4136L135.109 87.4088C135.109 87.4088 135.109 87.4088 135.073 87.4185L135.091 87.4136Z" fill="white"/><path id="Vector_10" d="M176.702 77.9321C171.703 81.9571 166.802 86.1322 162.143 90.5561C161.972 91.756 161.796 92.9375 161.607 94.1422C160.781 99.0765 159.713 103.978 158.225 108.774C157.488 111.161 156.631 113.541 155.599 115.849C154.567 118.157 153.365 120.413 151.774 122.459C150.986 123.47 150.068 124.437 149.01 125.246C147.953 126.054 146.732 126.691 145.383 126.99C144.715 127.128 144.033 127.211 143.34 127.179C142.646 127.148 141.901 126.993 141.235 126.621C140.574 126.268 140.006 125.675 139.657 125.024C139.309 124.373 139.138 123.655 139.06 122.991C138.93 121.617 139.132 120.311 139.463 119.049C139.794 117.787 140.241 116.593 140.757 115.439C141.788 113.13 143.088 110.946 144.472 108.858C147.281 104.689 150.511 100.859 153.91 97.2188C155.895 95.108 157.921 93.0838 160.018 91.0999C160.221 89.5785 160.401 88.0436 160.545 86.5184C160.652 85.2966 160.758 84.0747 160.824 82.8443C160.856 82.2291 160.871 81.6187 160.871 81.0314C160.877 80.7561 160.869 80.5039 160.861 80.2516C159.91 82.1277 158.992 84.0537 158.092 85.9749L156.431 89.5263C156.155 90.1082 155.865 90.7133 155.552 91.305C155.396 91.6008 155.239 91.8966 155.065 92.1973C154.89 92.4979 154.729 92.7755 154.431 93.1283C154.336 93.2123 154.264 93.3096 154.045 93.4457C153.99 93.4603 153.867 93.5125 153.812 93.527L153.666 93.5658C153.57 93.5717 153.446 93.5459 153.326 93.5384C153.096 93.482 152.865 93.3477 152.73 93.2073C152.576 93.0719 152.519 92.9304 152.444 92.7939C152.235 92.3013 152.212 91.9163 152.174 91.5544C152.136 90.8209 152.209 90.1362 152.282 89.4516C152.47 88.091 152.768 86.7793 153.172 85.4982C153.594 84.2123 154.076 82.9301 154.843 81.6897C155.247 81.0739 155.688 80.4483 156.511 79.9367C156.916 79.6924 157.497 79.5191 158.08 79.5797C158.668 79.6586 159.172 79.9359 159.52 80.2155C159.651 80.3375 159.744 80.4692 159.819 80.6058C160.11 80.0787 160.401 79.5516 160.715 79.0379C160.744 78.854 160.815 78.6787 160.951 78.5254C161.339 78.0703 162.026 78.0056 162.481 78.3937C162.63 78.5109 162.756 78.6926 162.771 78.7475L162.805 78.8755L162.861 78.9389C162.895 79.0669 162.909 79.1217 162.928 79.1949C162.962 79.3229 162.973 79.4374 162.979 79.5337C162.991 79.7262 163.021 79.9139 163.005 80.0747C163.019 80.4231 163.024 80.735 163.015 81.0701C163.01 81.717 162.964 82.3554 162.936 82.9889C162.857 84.2425 162.742 85.5057 162.604 86.7555C162.522 87.4816 162.422 88.2124 162.322 88.9433C166.756 84.8528 171.368 80.9892 176.096 77.2708C176.291 77.1212 176.59 77.1399 176.744 77.3534C176.893 77.5486 176.87 77.8287 176.68 77.9966L176.702 77.9321ZM159.79 92.8235C158.084 94.5083 156.406 96.2248 154.797 97.9817C151.458 101.625 148.282 105.441 145.573 109.544C144.221 111.605 142.985 113.733 142.007 115.949C141.518 117.057 141.098 118.205 140.816 119.356C140.534 120.507 140.358 121.688 140.475 122.792C140.591 123.896 141.064 124.867 141.928 125.323C142.779 125.801 143.962 125.762 145.055 125.531C147.245 125.009 149.08 123.368 150.522 121.499C151.977 119.607 153.103 117.43 154.058 115.201C155.026 112.948 155.824 110.643 156.511 108.289C157.904 103.576 158.891 98.7361 159.653 93.8577C159.703 93.5313 159.749 93.1865 159.799 92.8601L159.79 92.8235ZM158.964 82.1043C158.676 82.1221 158.404 82.0571 158.176 81.863C158.176 81.863 158.148 81.8313 158.13 81.8362C158 81.7141 157.889 81.6652 157.825 81.6432C157.765 81.6395 157.682 81.6223 157.532 81.7207C157.222 81.8811 156.825 82.2996 156.496 82.7584C155.831 83.7174 155.315 84.8716 154.9 86.0382C154.467 87.2096 154.126 88.4347 153.905 89.6674C153.794 90.2837 153.72 90.8903 153.714 91.4593C153.729 91.5141 153.725 91.5738 153.717 91.6152C153.757 91.5459 153.797 91.4765 153.842 91.4254C154.009 91.1661 154.17 90.8886 154.336 90.6293C154.658 90.0743 154.981 89.5192 155.28 88.9507L157.127 85.5068C157.73 84.388 158.311 83.2558 158.933 82.1323L158.964 82.1043ZM161.012 79.9375C161.012 79.9375 161.063 79.9827 161.091 80.0144C161.063 79.9827 161.04 79.9693 161.012 79.9375Z" fill="white"/><path id="Vector_11" d="M198.187 72.1015C196.107 74.9614 193.987 77.8128 191.31 80.2636C190.625 80.8559 189.918 81.4348 189.075 81.8733C188.647 82.1041 188.205 82.2801 187.683 82.3792C187.18 82.4735 186.588 82.4543 186.075 82.2183C185.544 81.9872 185.149 81.6028 184.845 81.1942C184.541 80.7856 184.324 80.3345 184.148 79.8919C183.796 79.0068 183.6 78.1196 183.44 77.2226C183.263 76.3305 183.149 75.4604 183 74.6C182.925 74.1698 182.855 73.7579 182.735 73.3788C182.715 73.3057 182.701 73.2508 182.681 73.1777C182.518 73.2993 182.337 73.5037 182.175 73.7032C181.922 74.005 181.702 74.3568 181.487 74.7268C181.053 75.4486 180.669 76.2156 180.313 77.0143C178.898 80.1677 177.766 83.5006 176.717 86.8507C176.717 86.8507 176.708 86.8921 176.695 86.9152C176.695 86.9152 176.686 86.9566 176.673 86.9798C176.45 87.4692 175.894 87.7339 175.365 87.5808C175.13 87.5061 174.953 87.3572 174.827 87.1755C174.771 87.112 174.738 87.062 174.7 86.9938C174.663 86.9255 174.63 86.8755 174.62 86.8389C174.596 86.7475 174.572 86.6561 174.557 86.6012C174.538 86.5281 174.523 86.4732 174.509 86.4184C174.474 86.2124 174.472 86.0565 174.492 85.914C174.493 85.6203 174.526 85.3767 174.559 85.1331C174.626 84.6459 174.702 84.1952 174.792 83.7214C174.981 82.8103 175.175 81.9176 175.41 81.0334C175.839 79.2565 176.297 77.5113 176.767 75.7429L179.601 65.2474L182.519 54.7691C183.012 53.0142 183.511 51.2776 184.028 49.5362C184.286 48.6654 184.545 47.7947 184.858 46.9094C185.017 46.4759 185.171 46.0242 185.367 45.581C185.465 45.3594 185.558 45.1195 185.705 44.8651C185.786 44.7264 185.853 44.6107 186.015 44.4111C186.111 44.3272 186.196 44.2067 186.492 44.0695C186.584 44.0453 186.652 44.0076 186.767 43.9968C186.895 43.9629 187.032 43.9656 187.175 43.9865C187.317 44.0074 187.47 44.0649 187.585 44.1321C187.678 44.1859 187.78 44.2762 187.859 44.3531C188.269 44.7923 188.251 45.4624 187.812 45.8723C187.671 46.0073 187.516 46.0875 187.352 46.1311C187.28 46.2285 187.213 46.3441 187.145 46.4598C186.949 46.825 186.739 47.2133 186.551 47.6151C186.177 48.4186 185.826 49.2356 185.48 50.0708C184.806 51.7365 184.202 53.4425 183.639 55.1571C182.49 58.5728 181.456 62.0558 180.518 65.5327C179.586 69.028 178.713 72.527 177.969 76.0701C177.702 77.2759 177.476 78.4902 177.273 79.718C177.775 78.5869 178.278 77.4558 178.84 76.3285C179.255 75.5336 179.689 74.7338 180.187 73.956C180.439 73.5763 180.709 73.1917 181.038 72.8108C181.373 72.4483 181.697 72.0492 182.35 71.7785L182.478 71.7446L182.551 71.7252L182.66 71.6961C182.812 71.6756 183.009 71.682 183.184 71.753C183.512 71.8814 183.671 72.1131 183.77 72.2632C183.971 72.5815 184.016 72.824 184.102 73.0751C184.228 73.5505 184.29 74.0038 184.351 74.4571C184.469 75.3455 184.582 76.2156 184.709 77.0625C184.854 77.9046 185.022 78.7602 185.285 79.5318C185.566 80.2986 185.966 80.9949 186.548 81.2712C187.112 81.5523 187.908 81.3805 188.632 81.0125C189.361 80.6627 190.065 80.1435 190.722 79.5975C193.356 77.3537 195.551 74.561 197.71 71.7779C197.809 71.6343 198.019 71.6176 198.163 71.7165C198.307 71.8154 198.323 72.0262 198.22 72.1515L198.187 72.1015ZM187.436 45.9326C187.436 45.9326 187.5 45.8767 187.513 45.8536C187.513 45.8536 187.476 45.8633 187.436 45.9326Z" fill="white"/></g></svg>